<svg xmlns="http://www.w3.org/2000/svg" width="78.649" height="78.649" viewBox="0 0 78.649 78.649">
  <path id="Icon_awesome-telegram" data-name="Icon awesome-telegram" d="M39.325.563A39.325,39.325,0,1,0,78.649,39.887,39.318,39.318,0,0,0,39.325.563ZM58.638,27.5,52.184,57.916c-.476,2.157-1.76,2.68-3.552,1.665L38.8,52.335,34.06,56.9a2.482,2.482,0,0,1-1.982.967l.7-10.006L51,31.4c.793-.7-.174-1.094-1.221-.4L27.258,45.183l-9.7-3.029c-2.109-.666-2.157-2.109.444-3.124l37.913-14.62c1.76-.634,3.3.428,2.727,3.092Z" transform="translate(0 -0.563)" fill="#fff"/>
</svg>
